<?xml version="1.0" encoding="utf-8"?>
<!-- Generator: Adobe Illustrator 15.0.0, SVG Export Plug-In . SVG Version: 6.00 Build 0)  -->
<!DOCTYPE svg PUBLIC "-//W3C//DTD SVG 1.1//EN" "http://www.w3.org/Graphics/SVG/1.1/DTD/svg11.dtd">
<svg version="1.1" xmlns="http://www.w3.org/2000/svg" xmlns:xlink="http://www.w3.org/1999/xlink" x="0px" y="0px" width="86px"
	 height="82px" viewBox="0 0 86 82" enable-background="new 0 0 86 82" xml:space="preserve">
<g id="Layer_1" display="none">
	<g display="inline">
		<path fill="#0075BF" d="M44.561,34.5c2.877-0.142,4.938-0.781,6.688-4.844c1.75-4.063,2.094-5.063,1.625-7.219
			c-0.823-3.789-8.25-7.281-12.125-7c-2.892,0.21-1.719,3.375-1.531,5.063c0.188,1.688-1.375,3.424-2.75,4.156
			c-1.375,0.732-3.094,0.531-4.906-2.344s-5.188-2.625-5.5-1.188s0.25,3.285,2.188,3.83s6.438,3.67,7.188,4.42s2.137,3.125,4.006,4
			C41.313,34.249,42.342,34.61,44.561,34.5z"/>
		<path fill="#0075BF" d="M37.811,10.375c-0.469-1.625-1.188-4.594-1.031-5.719c0.157-1.125,1-2.156,1.75-2.125
			C39.28,2.562,39.842,4.594,39.748,6c-0.094,1.406,0.656,7.531,0.375,8.5c-0.281,0.969-0.656,0.688-1.219,0.5
			S37.811,10.375,37.811,10.375z"/>
		<path fill="#0075BF" d="M42.961,6.313c-0.125-1.625,0.225-5.785,1.381-5.781c1.727,0.006,1.75,2.25,1.688,4.438
			c-0.062,2.188-0.271,7.534-1.494,7.625C42.855,12.719,42.961,6.313,42.961,6.313z"/>
		<path fill="#0075BF" d="M48.279,8.344c0.313-1.844,1.344-6.125,2.406-5.656c1.062,0.469,1.813,2.344,0.5,6.719
			c-1.311,4.364-2.188,5.156-2.906,5.031C47.561,14.313,48.279,8.344,48.279,8.344z"/>
		<path fill="#0075BF" d="M56.779,10.125c1.305-0.445,2.438,1.188,2.406,2.188c-0.033,1-4.625,6.625-5.72,6.438
			c-1.094-0.187-0.688-1.313,0-2.531C54.154,15.002,55.498,10.563,56.779,10.125z"/>
	</g>
	<g display="inline">
		<path fill="#6452A2" d="M53.339,41.98c1.199,2.619,2.56,4.295,6.979,4.412c4.422,0.118,5.479,0.064,7.307-1.17
			c3.213-2.172,3.699-10.364,1.999-13.857c-1.269-2.607-3.771-0.343-5.269,0.458c-1.498,0.8-3.689-0.006-4.881-1.011
			c-1.19-1.005-1.642-2.676,0.354-5.426c1.997-2.75,0.513-5.792-0.938-5.548c-1.451,0.243-2.957,1.451-2.744,3.453
			c0.213,2.001-1.019,7.34-1.437,8.315s-2.108,3.144-2.228,5.204C52.365,38.87,52.414,39.961,53.339,41.98z"/>
		<path fill="#6452A2" d="M73.234,26.758c1.336-1.039,3.824-2.808,4.928-3.081c1.104-0.273,2.374,0.128,2.623,0.836
			s-1.428,1.984-2.77,2.419c-1.341,0.435-6.75,3.405-7.754,3.503c-1.004,0.099-0.882-0.354-0.916-0.946
			C69.313,28.898,73.234,26.758,73.234,26.758z"/>
		<path fill="#6452A2" d="M78.919,30.033c1.463-0.719,5.455-1.939,5.881-0.864c0.636,1.604-1.438,2.46-3.493,3.214
			c-2.056,0.754-7.097,2.545-7.637,1.442C72.932,32.313,78.919,30.033,78.919,30.033z"/>
		<path fill="#6452A2" d="M79.007,35.725c1.828-0.394,6.187-1.026,6.146,0.135c-0.041,1.161-1.504,2.553-6.053,2.958
			c-4.539,0.404-5.601-0.117-5.75-0.831C73.199,37.273,79.007,35.725,79.007,35.725z"/>
		<path fill="#6452A2" d="M80.508,44.279c0.896,1.045-0.197,2.703-1.138,3.045c-0.94,0.344-7.868-1.834-8.101-2.92
			c-0.231-1.086,0.963-1.125,2.351-0.939C75.007,43.65,79.626,43.252,80.508,44.279z"/>
	</g>
	<g display="inline">
		<path fill="#2DA343" d="M47.169,52.789c-1.91,2.156-2.892,4.076-1.211,8.168c1.683,4.092,2.157,5.037,4.026,6.209
			c3.285,2.059,10.974-0.811,13.48-3.779c1.871-2.213-1.212-3.588-2.55-4.633s-1.487-3.377-1.05-4.871
			c0.437-1.496,1.781-2.584,5.104-1.871c3.323,0.713,5.504-1.875,4.694-3.104s-2.522-2.117-4.269-1.111
			c-1.744,1.004-7.123,2.037-8.186,2.049c-1.061,0.012-3.729-0.656-5.66,0.068C49.62,50.641,48.643,51.127,47.169,52.789z"/>
		<path fill="#2DA343" d="M69.139,64.826c1.49,0.801,4.115,2.361,4.813,3.26c0.693,0.896,0.843,2.223,0.296,2.738
			c-0.547,0.512-2.394-0.504-3.332-1.555c-0.94-1.052-5.845-4.795-6.341-5.674c-0.497-0.88-0.034-0.949,0.494-1.222
			C65.596,62.104,69.139,64.826,69.139,64.826z"/>
		<path fill="#2DA343" d="M68.443,71.348c1.25,1.047,3.98,4.205,3.17,5.029c-1.211,1.229-2.832-0.322-4.354-1.895
			c-1.521-1.576-5.199-5.459-4.408-6.4C63.938,66.795,68.443,71.348,68.443,71.348z"/>
		<path fill="#2DA343" d="M63.273,73.73c1.101,1.514,3.44,5.244,2.362,5.676c-1.077,0.432-2.942-0.342-5.153-4.34
			c-2.205-3.986-2.157-5.168-1.565-5.594C59.509,69.045,63.273,73.73,63.273,73.73z"/>
		<path fill="#2DA343" d="M56.059,78.564c-0.594,1.244-2.553,0.914-3.246,0.19c-0.692-0.721-1.504-7.937-0.605-8.588
			s1.42,0.426,1.811,1.769C54.408,73.279,56.643,77.342,56.059,78.564z"/>
	</g>
	<g display="inline">
		<path fill="#EE3524" d="M35.033,50.223c-2.616-1.209-4.737-1.596-8.172,1.191s-4.203,3.516-4.787,5.641
			c-1.028,3.74,3.932,10.277,7.497,11.826c2.658,1.154,3.088-2.193,3.704-3.775c0.615-1.582,2.806-2.396,4.363-2.407
			c1.557-0.013,2.986,0.965,3.259,4.352c0.274,3.39,3.38,4.729,4.324,3.603s1.305-3.025-0.162-4.406
			c-1.463-1.381-4.001-6.236-4.317-7.25c-0.317-1.012-0.444-3.758-1.694-5.4C37.796,51.953,37.05,51.154,35.033,50.223z"/>
		<path fill="#EE3524" d="M29.825,74.729c-0.337,1.658-1.078,4.621-1.735,5.547c-0.66,0.923-1.888,1.447-2.538,1.068
			c-0.649-0.375-0.207-2.436,0.529-3.637c0.735-1.205,2.912-6.979,3.608-7.705c0.7-0.73,0.9-0.307,1.313,0.121
			C31.413,70.551,29.825,74.729,29.825,74.729z"/>
		<path fill="#EE3524" d="M23.38,75.939c-0.645,1.498-2.883,5.021-3.906,4.479c-1.524-0.803-0.504-2.803,0.563-4.711
			c1.073-1.91,3.734-6.554,4.862-6.063C26.441,70.313,23.38,75.939,23.38,75.939z"/>
		<path fill="#EE3524" d="M19.609,71.674c-1.134,1.488-4.032,4.805-4.755,3.896c-0.725-0.908-0.52-2.918,2.672-6.188
			c3.184-3.258,4.33-3.553,4.909-3.106C23.015,66.719,19.609,71.674,19.609,71.674z"/>
		<path fill="#EE3524" d="M12.904,66.154c-1.362-0.211-1.609-2.184-1.117-3.055c0.491-0.871,7.168-3.726,8.052-3.054
			c0.883,0.675,0.001,1.481-1.173,2.244C17.491,63.053,14.244,66.359,12.904,66.154z"/>
	</g>
	<g display="inline">
		<path fill="#F3CF1E" d="M33.373,38.075c0.522-2.833,0.374-4.985-3.176-7.623c-3.552-2.638-4.446-3.202-6.652-3.242
			c-3.877-0.071-8.985,6.353-9.602,10.19c-0.461,2.861,2.889,2.449,4.575,2.654c1.685,0.205,3.015,2.125,3.411,3.631
			c0.398,1.506-0.194,3.131-3.409,4.234S14.775,52.365,16.1,53c1.327,0.635,3.256,0.516,4.229-1.248
			c0.977-1.758,5.052-5.42,5.956-5.977c0.902-0.56,3.531-1.361,4.813-2.979C32.381,41.18,32.968,40.26,33.373,38.075z"/>
		<path fill="#F3CF1E" d="M8.341,39.094c-1.691,0.084-4.745,0.1-5.804-0.309c-1.058-0.411-1.869-1.471-1.664-2.194
			c0.204-0.723,2.309-0.804,3.654-0.387c1.35,0.415,7.482,1.095,8.359,1.589c0.88,0.498,0.521,0.797,0.207,1.302
			C12.782,39.598,8.341,39.094,8.341,39.094z"/>
		<path fill="#F3CF1E" d="M5.571,33.149c-1.609-0.254-5.577-1.551-5.308-2.676c0.402-1.676,2.592-1.183,4.704-0.621
			c2.116,0.567,7.272,1.997,7.08,3.21C11.781,34.723,5.571,33.149,5.571,33.149z"/>
		<path fill="#F3CF1E" d="M8.771,28.44c-1.723-0.731-5.651-2.718-4.951-3.643c0.7-0.927,2.699-1.226,6.654,1.058
			c3.945,2.278,4.514,3.316,4.228,3.987C14.416,30.513,8.771,28.44,8.771,28.44z"/>
		<path fill="#F3CF1E" d="M12.461,20.577c-0.133-1.372,1.716-2.099,2.683-1.838c0.965,0.26,5.383,6.023,4.95,7.045
			c-0.436,1.022-1.437,0.368-2.465-0.581C16.601,24.254,12.593,21.926,12.461,20.577z"/>
	</g>
</g>
<g id="Layer_2">
	<path fill-rule="evenodd" clip-rule="evenodd" fill="#6452A2" d="M69.063,31.167l-0.653-0.308l-0.463-0.228l-0.452-0.078
		l-0.354,0.036c-0.354,0.036-0.245,0.046-0.58,0.125c-0.336,0.081-0.336,0.081-0.605,0.188c-0.272,0.107-0.453,0.178-0.453,0.178
		l-0.352,0.293l-0.379,0.355l-0.263,0.257c0,0,0.02,0.301-0.217,0.496c-0.233,0.195-0.287,0.319-0.287,0.319l-0.191,0.178
		l-0.425-0.14l-0.2-0.229c-0.244,0.045-0.433,0.223-0.433,0.223l-0.272,0.107l-0.427-0.14c0,0,0.327,0.026-0.282-0.299l-0.605-0.326
		L60.832,32c-0.435-0.034-0.615,0.038-0.615,0.038s-0.1,0.142-0.415,0.01c-0.32-0.132-0.292-0.193-0.572-0.237
		c-0.282-0.042-0.517-0.104-0.517-0.104l-0.292-0.45l-0.164-0.399l-0.384-0.67c0,0,0.054-0.125-0.109-0.522
		c-0.165-0.396-0.22-0.787-0.22-0.787l-0.102-0.371l-0.157-0.76l0.306-0.532l0.28-0.47l0.044-0.531l0.514-0.409l0.597-0.595
		l0.333-0.337l0.433-0.735l0.013-1.494c0,0-0.165-0.911-0.259-1.132c-0.089-0.221-0.52-1.13-0.52-1.13l-0.271-0.149l-0.399,0.054
		l-0.271-0.15l-0.363-0.114l-0.344-0.069c0,0,0.008-0.106-0.265,0c-0.27,0.107-0.244,0.045-0.433,0.223
		c-0.19,0.177-0.225,0.345-0.225,0.345s-0.109-0.008-0.091,0.292c0.02,0.301,0.02,0.045,0.012,0.408
		c-0.008,0.362,0.037,0.6,0.037,0.6l-0.17,0.223l-0.136,0.309l0.01,0.408l-0.025,0.318l-0.135,0.31c0,0-0.019,0.212-0.09,0.549
		c-0.069,0.336-0.169,0.478-0.123,0.717c0.046,0.238,0.04,0.857,0.04,0.857l-0.09,0.292l-0.107,0.76l-0.006,0.876l-0.004,1.132
		L55.31,29.71l-0.624,0.656l0.012,0.406l-0.387,0.719l-0.596,0.594l0.137,0.459l-0.344,0.443l-0.53,0.878l-0.079,0.699l-0.054,0.38
		c0,0,0.021,0.301,0.065,0.54c0.046,0.239,0.211,0.636,0.211,0.636l-0.252,0.152l-0.236-0.318c-0.199,0.284-0.234,0.196-0.144,0.416
		c0.092,0.221-0.01,0.107,0.173,0.292c0.181,0.186,0.417,0.247,0.417,0.247l0.201,0.229c-0.182,0.328-0.299,0.426-0.299,0.426
		l-0.226,0.089l0.01,0.406l0.21,0.38l-0.16,0.628c-0.326,0.232-0.361,0.4-0.361,0.4s-0.117,0.097,0.01,0.406
		c0.127,0.31,0.317,0.132,0.183,0.442c-0.133,0.31-0.006,0.619-0.006,0.619l0.183,0.185l0.498,0.318l0.138,0.202l0.172,0.548
		l-0.231,0.708c0.218,0.273,0.444,0.441,0.444,0.441l0.236,0.316l0.482,0.53c0,0,0.455,0.335,0.564,0.599
		c0.109,0.266,0.056,0.133,0.218,0.53c0.165,0.398,0.32,0.645,0.32,0.645s-0.008,0.106,0.19,0.336c0.2,0.229-0.062,0.23,0.373,0.264
		c0.436,0.034,0.832-0.02,1.015,0.164c0.182,0.186,0.109,0.266,0.481,0.274c0.371,0.007,0.569-0.021,0.569-0.021l0.801,0.405
		c0,0,0.387,0.052,0.705-0.073c0.315-0.124,0.19-0.177,0.607-0.188c0.415-0.01,0.804,0.041,1.051-0.004
		c0.244-0.045,0.687-0.117,0.687-0.117s0.443,0.185,0.842,0.13c0.397-0.054,0.88-0.039,0.88-0.039l1.293-0.561l0.995-0.137
		l0.778-0.152l1.529-0.501c0,0,0.379-0.355,0.377-0.611c0-0.257,0.296-0.938,0.296-0.938l0.449-0.948l0.054-0.38
		c0,0-0.136-0.203,0.107-0.761c0.242-0.56,0.204-0.904,0.204-0.904L69.8,40.328l0.397-0.311l-0.2-0.742l0.225-0.603l0.188-0.69
		l0.016-0.469l0.271-0.62c0,0-0.102-0.371-0.167-0.654c-0.063-0.283-0.109-0.777-0.109-0.777l-0.511-0.467l-0.536-0.405
		c0.054-0.38,0.217-0.496,0.217-0.496l0.198-0.284l0.052-0.381l-0.183-0.442c-0.317-0.131-0.442-0.184-0.442-0.184l0.069-0.336
		l0.089-0.292l-0.063-0.283C69.31,31.892,69.044,31.123,69.063,31.167 M69.786,30.881l1.268-0.242c0,0,0.452-0.179,0.679-0.268
		c0.227-0.089,0.741-0.241,0.741-0.241l0.725-0.286c0.044-0.273,0.522-0.514,0.522-0.514l0.623-0.144l0.488-0.347l0.67-0.417
		l0.516-0.152l0.388-0.205l0.236-0.196l0.542-0.214l0.453-0.178c0,0,0.588-0.232,0.794-0.365c0.209-0.133,1.158-0.764,1.158-0.764
		l0.596-0.595l-0.073-0.433l-0.274-0.407l-0.109-0.264l-0.336-0.175l-0.354,0.036l-0.371-0.265l-0.419-0.246
		c-0.315-0.132-0.425-0.14-0.425-0.14l-0.29,0.063l-0.315,0.125l-0.37,0.505l-0.226,0.089c0,0-0.165-0.141-0.219,0.239
		c-0.052,0.381-0.079,0.442-0.079,0.442l-0.09,0.293c-0.371,0.248-0.532,0.364-0.532,0.364s-0.181,0.071-0.463,0.029
		c-0.281-0.044,0.09-0.292-0.343-0.071c-0.436,0.223-0.843,0.64-0.843,0.64s-0.115,0.097-0.405,0.16
		c-0.289,0.063-0.47,0.134-0.47,0.134l-0.236,0.195l-0.179,0.328l-0.255,0.151l-0.27,0.107c-0.445,0.073-0.534,0.109-0.534,0.109
		l-0.307,0.275c0,0,0.034,0.088-0.254,0.15c-0.29,0.064-0.282-0.042-0.471,0.135c-0.188,0.177-0.45,0.435-0.45,0.435l-0.217,0.239
		l-0.244,0.302l-0.217,0.239l-0.198,0.284l0.002,0.513C69.425,30.768,69.813,30.82,69.786,30.881 M73.713,34.778
		c0,0,0.325,0.026,0.589,0.025c0.263-0.001,0.535,0.148,0.535,0.148l0.498,0.061c0,0,0.163-0.116,0.389-0.205
		c0.227-0.089,0.541-0.47,0.541-0.47s-0.1-0.115,0.218-0.24c0.316-0.125,0.298-0.169,0.578-0.125
		c0.28,0.043,0.607,0.069,0.607,0.069s0.107,0.008,0.38-0.1c0.271-0.106,0.742-0.241,0.742-0.241s0.326-0.231,0.588-0.231
		c0.263,0,0.308-0.019,0.598-0.081c0.288-0.063,0.361-0.143,0.606-0.188c0.244-0.045-0.326-0.025,0.516-0.151
		c0.84-0.127,0.705-0.074,0.978-0.181c0.271-0.107,0.333-0.081,0.605-0.188c0.272-0.106,0.453-0.178,0.723-0.285
		c0.272-0.107,0.769-0.56,0.769-0.56l0.334-0.337l0.181-0.327l0.15-0.78l-0.2-0.486l-0.292-0.45l-0.227-0.167
		c0,0-0.282-0.299-0.544-0.299c-0.264,0.001-0.208-0.124-0.435-0.034c-0.227,0.089-0.183,0.071-0.407,0.16
		c-0.227,0.089-0.137,0.054-0.361,0.143c-0.227,0.089,0.162-0.116-0.499,0.196c-0.661,0.312-0.832,0.534-0.832,0.534l-0.667,0.674
		l-0.334,0.338l-0.281-0.3l-0.272-0.15c0,0-0.135,0.054-0.407,0.16c-0.271,0.108-0.317,0.126-0.524,0.258
		c-0.208,0.134-0.804,0.472-0.804,0.472s0.054-0.124-0.255,0.151c-0.306,0.275-0.567,0.533-0.567,0.533s-0.026,0.062-0.433,0.223
		c-0.409,0.16-0.718,0.179-0.718,0.179l-0.343-0.07l-0.309,0.019l-0.335,0.081c0,0-0.082-0.071-0.298,0.169
		c-0.217,0.24-0.359,0.399-0.359,0.399l-0.265,0.257c-0.196,0.284-0.306,0.532-0.306,0.532l0.002,0.257L73.713,34.778z
		 M74.171,39.066c0.109,0.265,0.294,0.706,0.294,0.706l0.67,0.352l0.417-0.009c0,0,0.289-0.063,0.516-0.153s0.453-0.178,0.453-0.178
		s0.288-0.063,0.578-0.126c0.29-0.063,0.473-0.133,0.473-0.133l0.939-0.012l0.398-0.055l0.417-0.011l0.3,0.088l0.588,0.024
		c0,0,0.507-0.046,0.824-0.171c0.316-0.125,1.466-0.27,1.466-0.27l0.697,0.033l0.389-0.461l0.731-0.392l0.532-0.621l-0.119-0.929
		l-0.284-0.557c0,0-0.036-0.088-0.346-0.326c-0.308-0.237-0.264-0.255-0.544-0.299c-0.28-0.043-0.19-0.079-0.48-0.016
		c-0.29,0.063-0.191-0.08-0.517,0.152c-0.323,0.231-0.143,0.16-0.396,0.311c-0.254,0.152-0.119,0.098-0.48,0.241
		c-0.361,0.142-0.407,0.161-0.677,0.268c-0.272,0.106-0.318,0.124-0.608,0.187c-0.287,0.063-0.035-0.089-0.577,0.126
		c-0.544,0.213-1.104,0.64-1.104,0.64l-0.27,0.106l-0.38,0.1l-0.471,0.134l-0.363,0.142l-0.433,0.479
		c-0.29-0.193-0.427-0.396-0.427-0.396l-0.263,0l-0.325-0.025l-0.346-0.07l-0.28-0.043l-0.679,0.267
		c-0.28,0.215-0.362,0.401-0.362,0.401L74.171,39.066z M71.052,45.64l0.79,0.51l1.324,0.659l1.597,0.553l1.496,0.437l0.942,0.244
		l0.735,0.122l0.586-0.232l0.571,0.237l1.15-0.401l0.54-0.728l0.268-1.134c0,0-0.075-0.432-0.319-0.645
		c-0.246-0.211-0.544-0.299-0.544-0.299l-0.453-0.077l-0.417,0.01c0,0-0.19-0.079-0.498-0.061s-0.173-0.034-0.463,0.028
		c-0.29,0.063-0.651,0.205-0.651,0.205s0.317-0.124-0.225,0.091c-0.544,0.213-0.742,0.24-0.742,0.24l-0.399-0.202
		c0,0,0.008-0.106-0.3-0.087c-0.308,0.019-0.179,0.327-0.642,0.099c-0.463-0.228-0.528-0.255-0.809-0.298
		c-0.279-0.043-0.49-0.166-0.49-0.166l-0.688-0.14l-0.437-0.033c0,0,0.165-0.115-0.306,0.018c-0.471,0.134-0.563,0.171-0.563,0.171
		l-0.361,0.143C71.286,45.188,71.052,45.64,71.052,45.64"/>
	<path fill-rule="evenodd" clip-rule="evenodd" fill="#F3CF1E" d="M14.511,38.841l0.333,0.629l0.229,0.455l0.313,0.329l0.305,0.179
		c0.304,0.178,0.223,0.107,0.54,0.239c0.317,0.132,0.317,0.132,0.6,0.207c0.283,0.073,0.471,0.123,0.471,0.123l0.462-0.027
		l0.521-0.061l0.368-0.051c0,0,0.169-0.251,0.478-0.27c0.308-0.018,0.427-0.086,0.427-0.086l0.26-0.03l0.255,0.362l0.018,0.301
		c0.224,0.107,0.484,0.076,0.484,0.076l0.283,0.075l0.254,0.362c0,0-0.246-0.211,0.04,0.405l0.285,0.618l0.16,0.337
		c0.327,0.282,0.515,0.332,0.515,0.332s0.167-0.056,0.339,0.236s0.112,0.325,0.31,0.526c0.198,0.198,0.348,0.386,0.348,0.386
		l-0.044,0.53l-0.114,0.414l-0.108,0.761c0,0-0.119,0.068-0.232,0.482c-0.113,0.413-0.309,0.758-0.309,0.758l-0.148,0.354
		l-0.343,0.699l-0.573,0.245l-0.512,0.212l-0.363,0.397l-0.662,0.024l-0.842,0.124l-0.475,0.074l-0.799,0.333l-0.931,1.187
		c0,0-0.428,0.824-0.491,1.055c-0.064,0.229-0.281,1.209-0.281,1.209l0.125,0.278l0.352,0.191l0.125,0.279l0.22,0.304l0.232,0.258
		c0,0-0.072,0.079,0.21,0.154c0.282,0.073,0.223,0.107,0.484,0.077c0.26-0.031,0.393-0.145,0.393-0.145s0.082,0.071,0.252-0.18
		c0.17-0.252,0.012-0.047,0.242-0.332c0.229-0.285,0.34-0.503,0.34-0.503l0.273-0.076l0.299-0.168l0.242-0.331l0.217-0.238l0.3-0.17
		c0,0,0.144-0.159,0.408-0.387c0.265-0.225,0.431-0.28,0.542-0.498c0.11-0.218,0.497-0.709,0.497-0.709l0.252-0.181l0.554-0.545
		l0.544-0.695l0.702-0.902l0.912-0.747l0.902-0.159l0.242-0.33l0.751-0.346l0.842-0.125l0.173-0.448l0.546-0.152l0.965-0.389
		l0.494-0.512l0.277-0.272c0,0,0.17-0.252,0.28-0.469c0.11-0.219,0.224-0.633,0.224-0.633l0.295,0.028l-0.006,0.393
		c0.333-0.11,0.307-0.019,0.37-0.249c0.063-0.229,0.073-0.079,0.042-0.333c-0.031-0.255-0.182-0.441-0.182-0.441l-0.018-0.302
		c0.346-0.156,0.5-0.165,0.5-0.165l0.236,0.062l0.242-0.331l0.066-0.427l0.516-0.406c0.402,0.006,0.534-0.107,0.534-0.107
		s0.155-0.009,0.244-0.331c0.088-0.323-0.173-0.292,0.126-0.46c0.298-0.169,0.388-0.49,0.388-0.49l-0.032-0.255l-0.203-0.547
		l0.016-0.242l0.198-0.54l0.623-0.429c-0.006-0.347-0.083-0.613-0.083-0.613l0.006-0.394l-0.059-0.705c0,0-0.157-0.535-0.081-0.811
		c0.076-0.275,0.038-0.138,0.151-0.551c0.114-0.414,0.142-0.703,0.142-0.703s0.073-0.08,0.054-0.38
		c-0.018-0.301,0.192-0.147-0.134-0.43c-0.327-0.283-0.678-0.473-0.709-0.729c-0.03-0.254,0.076-0.276-0.215-0.5
		c-0.292-0.225-0.468-0.32-0.468-0.32l-0.388-0.792c0,0-0.279-0.271-0.609-0.356c-0.33-0.087-0.261,0.03-0.6-0.207
		c-0.339-0.236-0.618-0.507-0.841-0.615c-0.223-0.108-0.622-0.311-0.622-0.311s-0.241-0.408-0.593-0.599s-0.725-0.486-0.725-0.486
		l-1.379-0.312l-0.879-0.476l-0.716-0.335l-1.53-0.499c0,0-0.521,0.061-0.679,0.266c-0.157,0.205-0.814,0.576-0.814,0.576
		l-0.943,0.492l-0.276,0.273c0,0-0.017,0.242-0.554,0.545c-0.538,0.304-0.72,0.601-0.72,0.601l-0.416,0.779l-0.509,0.015
		l-0.296,0.711l-0.55,0.35l-0.576,0.441l-0.302,0.365l-0.597,0.336c0,0-0.148,0.355-0.271,0.62
		c-0.123,0.263-0.391,0.687-0.391,0.687l0.119,0.672l0.178,0.638c-0.277,0.273-0.478,0.27-0.478,0.27l-0.333,0.11l-0.277,0.272
		l-0.126,0.461c0.172,0.292,0.241,0.408,0.241,0.408l-0.265,0.227l-0.251,0.181l-0.123,0.263
		C14.76,38.117,14.499,38.887,14.511,38.841 M13.757,38.644l-1.162-0.551c0,0-0.471-0.124-0.707-0.185
		c-0.235-0.062-0.741-0.244-0.741-0.244l-0.753-0.197c-0.205,0.193-0.735,0.104-0.735,0.104l-0.588-0.252l-0.603-0.011l-0.792-0.06
		l-0.505-0.181l-0.437-0.065l-0.308,0.018l-0.565-0.148L5.391,36.75c0,0-0.613-0.159-0.861-0.176
		c-0.249-0.015-1.395-0.068-1.395-0.068l-0.843,0.124l-0.208,0.39l-0.031,0.485L1.977,37.78l0.16,0.337l0.304,0.179l0.135,0.43
		l0.182,0.442c0.173,0.292,0.255,0.362,0.255,0.362l0.27,0.12l0.33,0.086l0.607-0.187l0.235,0.062c0,0,0.044,0.209,0.32-0.064
		C5.05,39.274,5.11,39.24,5.11,39.24l0.252-0.18c0.449,0.019,0.65,0.022,0.65,0.022s0.188,0.049,0.386,0.249
		c0.198,0.2-0.252,0.182,0.232,0.258c0.483,0.077,1.065-0.017,1.065-0.017s0.154-0.01,0.424,0.11c0.27,0.12,0.458,0.169,0.458,0.169
		l0.309-0.018l0.346-0.156l0.295,0.028l0.283,0.074c0.398,0.203,0.493,0.227,0.493,0.227l0.415-0.039c0,0,0.025-0.092,0.294,0.027
		c0.271,0.121,0.198,0.2,0.459,0.17c0.261-0.03,0.628-0.083,0.628-0.083l0.32-0.063l0.38-0.098l0.321-0.064l0.333-0.109l0.314-0.411
		C13.977,38.948,13.698,38.677,13.757,38.644 M13.023,33.224c0,0-0.245-0.212-0.456-0.365c-0.21-0.154-0.335-0.434-0.335-0.434
		l-0.361-0.34c0,0-0.201-0.003-0.437-0.065c-0.235-0.062-0.722,0.057-0.722,0.057s0.009,0.15-0.321,0.064
		c-0.33-0.086-0.343-0.041-0.54-0.24c-0.198-0.2-0.442-0.411-0.442-0.411s-0.082-0.072-0.364-0.146
		c-0.282-0.074-0.741-0.243-0.741-0.243s-0.402-0.007-0.612-0.161s-0.257-0.166-0.527-0.286c-0.271-0.12-0.377-0.099-0.601-0.206
		c-0.222-0.108,0.246,0.212-0.505-0.182c-0.751-0.394-0.609-0.356-0.892-0.43c-0.282-0.075-0.317-0.133-0.6-0.207
		c-0.283-0.074-0.471-0.124-0.753-0.198c-0.283-0.073-0.959-0.004-0.959-0.004L2.38,29.502l-0.346,0.157l-0.601,0.533l-0.139,0.506
		l-0.044,0.53l0.079,0.267c0,0,0.04,0.405,0.25,0.559c0.21,0.153,0.091,0.221,0.327,0.282c0.236,0.062,0.188,0.05,0.423,0.111
		c0.235,0.062,0.142,0.037,0.377,0.099c0.236,0.062-0.201-0.004,0.519,0.136c0.719,0.139,0.992,0.063,0.992,0.063l0.949-0.147
		l0.475-0.072l0.041,0.404l0.125,0.28c0,0,0.142,0.037,0.424,0.111c0.283,0.074,0.33,0.086,0.578,0.102
		c0.249,0.015,0.933,0.096,0.933,0.096s-0.12,0.067,0.295,0.028c0.415-0.04,0.783-0.091,0.783-0.091s0.06-0.034,0.483,0.078
		c0.424,0.111,0.682,0.277,0.682,0.277l0.232,0.258l0.257,0.166l0.317,0.132c0,0,0.022,0.104,0.343,0.041
		c0.32-0.063,0.534-0.107,0.534-0.107l0.367-0.052c0.333-0.11,0.572-0.244,0.572-0.244l0.157-0.205L13.023,33.224z M15.298,29.529
		c0.076-0.276,0.202-0.735,0.202-0.735l-0.32-0.676l-0.338-0.236c0,0-0.271-0.12-0.506-0.182s-0.471-0.124-0.471-0.124
		s-0.27-0.12-0.54-0.24c-0.27-0.12-0.458-0.168-0.458-0.168l-0.76-0.545l-0.351-0.19l-0.339-0.237l-0.185-0.246l-0.456-0.366
		c0,0-0.433-0.261-0.763-0.348c-0.329-0.085-1.337-0.645-1.337-0.645l-0.537-0.437l-0.593,0.141l-0.827-0.118l-0.808,0.184
		l-0.476,0.813l-0.117,0.61c0,0-0.025,0.093,0.076,0.464c0.1,0.371,0.052,0.359,0.25,0.558c0.198,0.199,0.104,0.175,0.374,0.294
		c0.27,0.122,0.104,0.176,0.505,0.183c0.403,0.006,0.214-0.044,0.509-0.016s0.154-0.008,0.531,0.089
		c0.377,0.099,0.425,0.111,0.707,0.186c0.283,0.074,0.33,0.086,0.599,0.206c0.271,0.12-0.024,0.092,0.541,0.24
		c0.565,0.148,1.275,0.137,1.275,0.137l0.283,0.074l0.364,0.145l0.459,0.169l0.377,0.098l0.641-0.127
		c0.112,0.325,0.097,0.567,0.097,0.567l0.21,0.153l0.244,0.213l0.233,0.257l0.197,0.2l0.708,0.186
		c0.354-0.006,0.534-0.107,0.534-0.107L15.298,29.529z M21.841,26.113l-0.316-0.872l-0.651-1.305l-0.935-1.379l-0.925-1.229
		l-0.602-0.749l-0.512-0.528l-0.613-0.16l-0.311-0.525l-1.165-0.354l-0.88,0.263l-0.912,0.748c0,0-0.208,0.39-0.143,0.703
		c0.066,0.313,0.251,0.559,0.251,0.559l0.313,0.329l0.339,0.237c0,0,0.103,0.175,0.361,0.341c0.258,0.165,0.116,0.128,0.386,0.249
		c0.27,0.12,0.646,0.219,0.646,0.219s-0.33-0.087,0.236,0.061c0.566,0.148,0.742,0.244,0.742,0.244l0.194,0.396
		c0,0-0.072,0.081,0.186,0.246c0.257,0.167,0.345-0.156,0.574,0.298c0.229,0.455,0.264,0.514,0.461,0.713
		c0.197,0.2,0.289,0.421,0.289,0.421l0.464,0.516l0.326,0.283c0,0-0.201-0.003,0.258,0.166c0.458,0.169,0.553,0.194,0.553,0.194
		l0.376,0.098C21.376,26.337,21.841,26.113,21.841,26.113"/>
	<path fill-rule="evenodd" clip-rule="evenodd" fill="#EE3524" d="M30.624,68.771l0.708-0.15l0.508-0.099l0.406-0.21l0.255-0.242
		c0.256-0.241,0.165-0.183,0.377-0.446c0.213-0.266,0.213-0.266,0.359-0.514c0.146-0.247,0.244-0.412,0.244-0.412l0.093-0.442
		l0.076-0.508l0.043-0.36c0,0-0.205-0.226-0.143-0.521c0.063-0.296,0.026-0.426,0.026-0.426l0.037-0.253l0.424-0.146l0.303,0.061
		c0.164-0.183,0.201-0.437,0.201-0.437l0.146-0.247l0.425-0.146c0,0-0.273,0.177,0.411,0.067l0.685-0.109l0.375-0.063
		c0.363-0.235,0.461-0.4,0.461-0.4s-0.011-0.172,0.322-0.259c0.333-0.087,0.351-0.022,0.6-0.156
		c0.248-0.135,0.473-0.229,0.473-0.229l0.514,0.181l0.38,0.215l0.724,0.297c0,0,0.036,0.131,0.416,0.346
		c0.38,0.214,0.669,0.487,0.669,0.487l0.313,0.231l0.603,0.504l0.094,0.604l0.076,0.539l0.301,0.443l-0.148,0.632l-0.095,0.827
		l-0.05,0.467l0.123,0.839l0.932,1.186c0,0,0.705,0.618,0.917,0.736c0.211,0.119,1.121,0.577,1.121,0.577l0.308-0.045l0.28-0.283
		l0.31-0.045l0.357-0.13l0.314-0.151c0,0,0.062,0.089,0.208-0.158c0.146-0.247,0.163-0.183,0.201-0.437
		c0.037-0.253-0.042-0.408-0.042-0.408s0.094-0.059-0.113-0.284c-0.204-0.226-0.042-0.022-0.264-0.313
		c-0.223-0.291-0.409-0.451-0.409-0.451l-0.004-0.278l-0.09-0.325l-0.266-0.313l-0.179-0.267l-0.09-0.325
		c0,0-0.121-0.178-0.276-0.485c-0.156-0.309-0.166-0.48-0.353-0.64c-0.188-0.161-0.574-0.652-0.574-0.652l-0.113-0.285l-0.396-0.662
		l-0.547-0.694l-0.71-0.896L42.38,61.65l0.077-0.893l-0.264-0.314l-0.148-0.799l0.095-0.826l-0.399-0.279l-0.009-0.556l-0.135-1.011
		l-0.378-0.599l-0.199-0.331c0,0-0.204-0.225-0.39-0.386c-0.187-0.161-0.568-0.374-0.568-0.374l0.104-0.272l0.387,0.108
		c-0.023-0.343,0.062-0.295-0.149-0.414c-0.211-0.118-0.061-0.09-0.32-0.126c-0.259-0.036-0.484,0.058-0.484,0.058l-0.302-0.061
		c-0.064-0.367-0.034-0.515-0.034-0.515l0.122-0.206l-0.266-0.314l-0.404-0.173l-0.269-0.593c0.11-0.377,0.032-0.531,0.032-0.531
		s0.031-0.146-0.265-0.314c-0.295-0.166-0.333,0.087-0.422-0.237c-0.089-0.326-0.385-0.492-0.385-0.492l-0.26-0.036l-0.593,0.05
		l-0.236-0.076l-0.481-0.328l-0.264-0.698c-0.344-0.084-0.628-0.08-0.628-0.08l-0.387-0.108l-0.713-0.126
		c0,0-0.569,0.009-0.822-0.134c-0.254-0.143-0.127-0.071-0.507-0.286s-0.658-0.315-0.658-0.315s-0.059-0.09-0.362-0.149
		c-0.303-0.061-0.096-0.22-0.459,0.016c-0.364,0.234-0.645,0.517-0.905,0.479c-0.259-0.035-0.252-0.142-0.55,0.076
		c-0.297,0.216-0.437,0.357-0.437,0.357l-0.884,0.161c0,0-0.339,0.194-0.51,0.482c-0.171,0.289-0.038,0.254-0.359,0.513
		c-0.322,0.259-0.662,0.452-0.826,0.635c-0.165,0.183-0.468,0.506-0.468,0.506s-0.467,0.123-0.746,0.404
		c-0.28,0.282-0.668,0.559-0.668,0.559l-0.665,1.22l-0.7,0.705L22.8,55.614l-0.889,1.313c0,0-0.075,0.509,0.087,0.71
		c0.162,0.202,0.359,0.917,0.359,0.917l0.243,1.019l0.198,0.331c0,0,0.235,0.078,0.396,0.664c0.161,0.585,0.408,0.834,0.408,0.834
		l0.663,0.594l-0.118,0.483l0.627,0.465l0.203,0.608l0.288,0.657l0.283,0.379l0.178,0.651c0,0,0.313,0.232,0.542,0.415
		c0.229,0.185,0.579,0.547,0.579,0.547l0.695,0.062l0.678-0.002c0.197,0.332,0.143,0.521,0.143,0.521l0.022,0.343l0.199,0.331
		l0.422,0.237c0.333-0.086,0.467-0.121,0.467-0.121l0.155,0.308l0.114,0.284l0.229,0.184C29.972,68.348,30.666,68.794,30.624,68.771
		 M30.233,69.431l-0.846,0.953c0,0-0.244,0.413-0.365,0.619c-0.123,0.206-0.433,0.636-0.433,0.636l-0.39,0.66
		c0.138,0.243-0.088,0.721-0.088,0.721l-0.401,0.488l-0.167,0.567l-0.263,0.73l-0.311,0.43l-0.177,0.396l-0.062,0.295l-0.293,0.495
		l-0.244,0.412c0,0-0.316,0.537-0.396,0.767s-0.43,1.298-0.43,1.298l-0.094,0.827l0.331,0.297l0.471,0.155l0.254,0.143l0.375-0.063
		l0.255-0.24L27.42,80l0.484-0.058c0.333-0.088,0.424-0.146,0.424-0.146l0.188-0.223l0.171-0.288l-0.028-0.622l0.122-0.205
		c0,0,0.218,0.012,0.02-0.319c-0.198-0.332-0.215-0.396-0.215-0.396l-0.114-0.285c0.135-0.418,0.19-0.606,0.19-0.606
		s0.097-0.165,0.346-0.3c0.249-0.136,0.114,0.283,0.316-0.152c0.201-0.437,0.258-1.01,0.258-1.01s0.032-0.146,0.219-0.37
		c0.189-0.225,0.287-0.39,0.287-0.39l0.062-0.295l-0.064-0.367l0.103-0.271l0.146-0.248c0.305-0.322,0.353-0.405,0.353-0.405
		l0.069-0.4c0,0-0.085-0.048,0.104-0.272c0.188-0.224,0.249-0.134,0.287-0.388c0.037-0.255,0.081-0.615,0.081-0.615l0.02-0.318
		l0.001-0.385l0.02-0.318l-0.022-0.343l-0.325-0.403C30.591,69.303,30.251,69.496,30.233,69.431 M24.683,68.721
		c0,0-0.273,0.176-0.479,0.335s-0.515,0.205-0.515,0.205l-0.431,0.252c0,0-0.055,0.188-0.177,0.396
		c-0.122,0.205-0.13,0.696-0.13,0.696s0.151,0.029-0.02,0.319c-0.171,0.289-0.129,0.312-0.377,0.446s-0.521,0.311-0.521,0.311
		s-0.092,0.059-0.237,0.307c-0.147,0.248-0.433,0.636-0.433,0.636s-0.11,0.378-0.317,0.537c-0.207,0.158-0.23,0.2-0.419,0.424
		c-0.188,0.223-0.195,0.329-0.359,0.512c-0.164,0.183,0.273-0.176-0.31,0.43c-0.583,0.606-0.511,0.483-0.656,0.73
		c-0.147,0.248-0.214,0.265-0.36,0.512c-0.146,0.248-0.244,0.412-0.391,0.661c-0.146,0.247-0.252,0.902-0.252,0.902l-0.05,0.466
		l0.065,0.367l0.372,0.705l0.465,0.261l0.514,0.18l0.284-0.005c0,0,0.411,0.067,0.618-0.091c0.207-0.159,0.242-0.029,0.365-0.234
		c0.122-0.207,0.097-0.165,0.219-0.373c0.122-0.205,0.073-0.123,0.195-0.328c0.122-0.208-0.055,0.188,0.269-0.455
		c0.323-0.643,0.318-0.919,0.318-0.919l0.101-0.934l0.051-0.467l0.41,0.066l0.309-0.046c0,0,0.074-0.124,0.22-0.371
		c0.146-0.247,0.171-0.289,0.25-0.519c0.08-0.231,0.337-0.855,0.337-0.855s0.035,0.131,0.103-0.271
		c0.069-0.4,0.113-0.762,0.113-0.762s-0.017-0.064,0.202-0.436s0.45-0.572,0.45-0.572l0.316-0.151l0.231-0.2l0.212-0.265
		c0,0,0.109,0.007,0.128-0.313c0.02-0.319,0.033-0.531,0.033-0.531l0.044-0.36c-0.023-0.343-0.094-0.603-0.094-0.603l-0.163-0.202
		L24.683,68.721z M21.618,65.618c-0.253-0.143-0.676-0.38-0.676-0.38l-0.751,0.126l-0.322,0.258c0,0-0.188,0.224-0.311,0.43
		l-0.243,0.412c0,0-0.189,0.224-0.377,0.448c-0.188,0.224-0.286,0.388-0.286,0.388l-0.735,0.576l-0.279,0.283l-0.322,0.258
		l-0.291,0.111l-0.479,0.335c0,0-0.371,0.341-0.542,0.63c-0.17,0.288-0.985,1.094-0.985,1.094l-0.569,0.394l-0.015,0.598
		l-0.331,0.748l-0.027,0.809l0.68,0.659l0.573,0.269c0,0,0.085,0.048,0.479,0.051c0.393,0.001,0.369,0.042,0.618-0.093
		c0.248-0.135,0.2-0.053,0.388-0.276s0.2-0.053,0.311-0.43s0.013-0.213,0.118-0.484c0.104-0.271,0.03-0.147,0.226-0.478
		c0.195-0.329,0.22-0.371,0.366-0.619c0.146-0.247,0.171-0.288,0.359-0.512s0.084,0.047,0.377-0.448
		c0.292-0.494,0.466-1.168,0.466-1.168l0.146-0.246l0.237-0.307l0.286-0.389l0.195-0.33l0.039-0.639
		c0.351-0.021,0.587,0.057,0.587,0.057l0.206-0.159l0.273-0.176l0.316-0.151l0.248-0.135l0.367-0.619
		c0.085-0.337,0.032-0.532,0.032-0.532L21.618,65.618z M19.932,58.563l-0.944,0.072l-1.459,0.277l-1.605,0.525l-1.455,0.555
		l-0.897,0.373l-0.655,0.346L12.6,61.248L12,61.405l-0.652,1.008l0.033,0.897l0.503,1.054c0,0,0.331,0.297,0.658,0.316
		c0.327,0.019,0.617-0.092,0.617-0.092l0.407-0.211l0.322-0.258c0,0,0.199-0.053,0.43-0.252c0.231-0.201,0.158-0.077,0.347-0.302
		c0.188-0.223,0.384-0.554,0.384-0.554s-0.171,0.29,0.122-0.205c0.293-0.496,0.432-0.637,0.432-0.637l0.442-0.08
		c0,0,0.061,0.088,0.291-0.111c0.231-0.201-0.065-0.367,0.443-0.465c0.509-0.099,0.576-0.115,0.824-0.25
		c0.249-0.136,0.492-0.164,0.492-0.164l0.63-0.305l0.364-0.233c0,0-0.055,0.188,0.231-0.201c0.286-0.388,0.334-0.472,0.334-0.472
		l0.196-0.329C20.032,59.059,19.932,58.563,19.932,58.563"/>
	<path fill-rule="evenodd" clip-rule="evenodd" fill="#2DA343" d="M64.692,63.563l0.063-0.705l0.056-0.503l-0.085-0.441
		l-0.161-0.311c-0.159-0.31-0.127-0.207-0.323-0.484c-0.195-0.278-0.195-0.278-0.394-0.488s-0.33-0.35-0.33-0.35l-0.406-0.219
		l-0.475-0.221L62.3,59.692c0,0-0.28,0.123-0.552-0.022c-0.271-0.146-0.407-0.151-0.407-0.151l-0.236-0.111l-0.017-0.438
		l0.149-0.264c-0.129-0.207-0.367-0.317-0.367-0.317l-0.199-0.211l-0.016-0.438c0,0,0.092,0.307,0.188-0.363l0.098-0.67l0.05-0.37
		c-0.121-0.409-0.253-0.549-0.253-0.549s-0.17-0.041-0.156-0.377c0.014-0.337,0.083-0.334,0.025-0.606
		c-0.058-0.271-0.083-0.508-0.083-0.508l0.329-0.425l0.324-0.29l0.506-0.587c0,0,0.138,0.005,0.461-0.285
		c0.322-0.291,0.676-0.479,0.676-0.479l0.319-0.224l0.675-0.411l0.616,0.093l0.55,0.089l0.524-0.147l0.574,0.326l0.778,0.335
		l0.44,0.186l0.858,0.136l1.436-0.515c0,0,0.814-0.473,0.993-0.635c0.181-0.162,0.899-0.874,0.899-0.874l0.048-0.302l-0.193-0.345
		l0.048-0.302l-0.02-0.371l-0.054-0.339c0,0,0.105-0.029-0.094-0.24c-0.198-0.21-0.131-0.206-0.367-0.317s-0.411-0.084-0.411-0.084
		s-0.029-0.103-0.31,0.021c-0.282,0.123-0.036,0.031-0.387,0.151c-0.35,0.122-0.563,0.249-0.563,0.249l-0.274-0.08l-0.343-0.013
		l-0.388,0.153l-0.313,0.088l-0.344-0.014c0,0-0.211,0.06-0.558,0.112c-0.348,0.055-0.519,0.013-0.731,0.14
		c-0.212,0.126-0.808,0.338-0.808,0.338l-0.313,0.021l-0.767,0.171l-0.84,0.304l-1.086,0.396l-1.182,0.153l-0.848-0.336
		l-0.386,0.152l-0.826-0.101l-0.778-0.335l-0.394,0.288l-0.544-0.156l-1.028-0.177l-0.697,0.175l-0.383,0.086
		c0,0-0.282,0.123-0.495,0.25c-0.212,0.126-0.536,0.417-0.536,0.417l-0.234-0.179l0.221-0.328c-0.342-0.081-0.269-0.146-0.447,0.016
		c-0.181,0.161-0.104,0.029-0.218,0.261c-0.115,0.232-0.09,0.469-0.09,0.469l-0.148,0.264c-0.378-0.049-0.513-0.122-0.513-0.122
		l-0.167-0.175l-0.385,0.152l-0.29,0.326l-0.659,0.075c-0.336-0.217-0.511-0.189-0.511-0.189s-0.133-0.073-0.383,0.152
		c-0.255,0.227-0.017,0.337-0.362,0.324C49.793,51.773,49.54,52,49.54,52l-0.113,0.231L49.3,52.8l-0.145,0.196l-0.465,0.353
		l-0.761,0.037c-0.185,0.296-0.266,0.562-0.266,0.562l-0.221,0.329l-0.336,0.626c0,0-0.16,0.533-0.377,0.727
		c-0.215,0.194-0.107,0.097-0.429,0.388c-0.324,0.29-0.507,0.52-0.507,0.52s-0.105,0.028-0.254,0.293
		c-0.149,0.263-0.242,0.023-0.121,0.433c0.121,0.41,0.313,0.755,0.198,0.986c-0.111,0.231-0.212,0.192-0.089,0.535
		c0.123,0.342,0.218,0.514,0.218,0.514l-0.104,0.873c0,0,0.087,0.374,0.319,0.62c0.23,0.245,0.236,0.109,0.394,0.487
		c0.156,0.377,0.244,0.751,0.373,0.958c0.131,0.207,0.355,0.588,0.355,0.588s-0.02,0.471,0.173,0.816
		c0.192,0.344,0.348,0.789,0.348,0.789l0.992,0.984l0.483,0.861l0.421,0.657l1.019,1.221c0,0,0.475,0.222,0.719,0.13
		c0.246-0.091,1.003-0.062,1.003-0.062l1.066,0.077l0.383-0.086c0,0,0.147-0.195,0.769-0.171c0.62,0.023,0.938-0.131,0.938-0.131
		l0.776-0.442l0.439,0.255l0.64-0.446l0.657-0.008l0.727-0.072l0.455-0.149l0.688,0.027c0,0,0.32-0.224,0.57-0.382
		c0.248-0.158,0.705-0.376,0.705-0.376l0.268-0.63l0.201-0.632c0.383-0.087,0.55,0.021,0.55,0.021l0.342,0.081l0.383-0.085
		l0.359-0.324c0.015-0.336,0.021-0.471,0.021-0.471l0.348-0.053l0.312-0.021l0.248-0.158C64.085,64.045,64.727,63.531,64.692,63.563
		 M65.219,64.124l0.682,1.072c0,0,0.329,0.351,0.496,0.525c0.163,0.175,0.492,0.593,0.492,0.593l0.528,0.561
		c0.278-0.057,0.678,0.297,0.678,0.297l0.357,0.52l0.504,0.324l0.638,0.463l0.328,0.418l0.331,0.283l0.271,0.146l0.396,0.421
		l0.33,0.351c0,0,0.431,0.454,0.632,0.598c0.2,0.143,1.14,0.787,1.14,0.787l0.78,0.335l0.39-0.221l0.292-0.393l0.216-0.194
		l0.05-0.368l-0.159-0.31l0.121-0.434l0.088-0.469c0.016-0.336-0.016-0.438-0.016-0.438l-0.161-0.242l-0.232-0.245l-0.613-0.16
		l-0.167-0.175c0,0,0.077-0.198-0.304-0.113c-0.384,0.086-0.453,0.084-0.453,0.084l-0.312,0.021
		c-0.369-0.251-0.538-0.358-0.538-0.358s-0.132-0.14-0.189-0.412s0.313-0.021-0.055-0.34c-0.366-0.317-0.908-0.542-0.908-0.542
		s-0.137-0.072-0.298-0.315c-0.163-0.242-0.296-0.383-0.296-0.383l-0.27-0.146l-0.376-0.049l-0.236-0.178l-0.198-0.211
		c-0.225-0.379-0.29-0.449-0.29-0.449l-0.373-0.183c0,0-0.071,0.064-0.234-0.179c-0.161-0.242-0.056-0.272-0.294-0.383
		c-0.236-0.11-0.576-0.259-0.576-0.259l-0.306-0.114l-0.375-0.115l-0.307-0.114l-0.341-0.081l-0.491,0.184
		C65.201,63.753,65.288,64.127,65.219,64.124 M62.871,69.086c0,0,0.09,0.307,0.184,0.547c0.095,0.239,0.047,0.541,0.047,0.541
		l0.117,0.477c0,0,0.169,0.108,0.334,0.283s0.642,0.328,0.642,0.328s0.075-0.131,0.306,0.114c0.232,0.245,0.269,0.213,0.325,0.484
		c0.058,0.271,0.149,0.579,0.149,0.579s0.029,0.103,0.229,0.313c0.196,0.21,0.492,0.593,0.492,0.593s0.336,0.215,0.429,0.455
		c0.094,0.239,0.128,0.274,0.29,0.517c0.161,0.243,0.265,0.281,0.394,0.488c0.129,0.208-0.092-0.307,0.327,0.418
		c0.418,0.726,0.318,0.62,0.517,0.829c0.199,0.211,0.197,0.277,0.394,0.489c0.198,0.209,0.331,0.349,0.53,0.56
		c0.198,0.21,0.806,0.504,0.806,0.504l0.441,0.187l0.379,0.049L71,77.704l0.395-0.355l0.328-0.425l0.079-0.267
		c0,0,0.188-0.363,0.096-0.603c-0.094-0.24,0.046-0.234-0.121-0.409c-0.165-0.175-0.131-0.14-0.296-0.315s-0.1-0.104-0.265-0.28
		c-0.166-0.176,0.167,0.107-0.365-0.386c-0.53-0.494-0.802-0.571-0.802-0.571l-0.884-0.372l-0.441-0.187l0.188-0.363l0.048-0.301
		c0,0-0.099-0.105-0.298-0.316c-0.198-0.209-0.23-0.245-0.433-0.387c-0.2-0.144-0.734-0.57-0.734-0.57s0.137,0.007-0.234-0.178
		c-0.372-0.184-0.711-0.332-0.711-0.332s-0.07-0.003-0.366-0.317c-0.298-0.315-0.425-0.591-0.425-0.591l-0.054-0.339l-0.127-0.274
		l-0.196-0.278c0,0,0.04-0.1-0.267-0.213c-0.306-0.113-0.51-0.188-0.51-0.188l-0.338-0.148c-0.344-0.082-0.619-0.093-0.619-0.093
		l-0.245,0.092L62.871,69.086z M58.924,71.018c-0.215,0.194-0.574,0.517-0.574,0.517l-0.1,0.736l0.155,0.378
		c0,0,0.163,0.242,0.33,0.418c0.164,0.176,0.329,0.351,0.329,0.351s0.163,0.242,0.326,0.484c0.162,0.242,0.294,0.382,0.294,0.382
		l0.343,0.857l0.193,0.345l0.156,0.377l0.022,0.304l0.183,0.547c0,0,0.225,0.448,0.454,0.693c0.232,0.244,0.777,1.244,0.777,1.244
		l0.214,0.648l0.58,0.192l0.632,0.53l0.782,0.268l0.848-0.438l0.434-0.454c0,0,0.071-0.065,0.19-0.432
		c0.119-0.365,0.152-0.33,0.095-0.602c-0.058-0.272,0.008-0.203-0.154-0.444c-0.163-0.243,0.008-0.203-0.328-0.418
		c-0.335-0.216-0.202-0.077-0.437-0.254c-0.234-0.179-0.135-0.073-0.401-0.354c-0.264-0.28-0.296-0.315-0.494-0.524
		c-0.199-0.211-0.23-0.246-0.394-0.489c-0.163-0.241,0.071-0.064-0.325-0.484c-0.397-0.42-1.003-0.781-1.003-0.781l-0.199-0.212
		l-0.229-0.312L61.33,73.71l-0.264-0.28l-0.611-0.227c0.083-0.334,0.229-0.531,0.229-0.531l-0.094-0.239l-0.09-0.307l-0.055-0.34
		l-0.058-0.271l-0.497-0.525c-0.302-0.181-0.51-0.189-0.51-0.189L58.924,71.018z M51.526,70.484l-0.213,0.901l-0.162,1.443
		l0.033,1.653l0.109,1.521l0.098,0.948l0.143,0.713l0.429,0.456l-0.023,0.605l0.788,0.909l0.888,0.237l1.18-0.155
		c0,0,0.39-0.221,0.507-0.52c0.115-0.298,0.093-0.602,0.093-0.602l-0.083-0.442l-0.159-0.377c0,0,0.01-0.201-0.117-0.477
		c-0.127-0.274-0.025-0.17-0.188-0.413c-0.163-0.242-0.429-0.521-0.429-0.521s0.232,0.245-0.163-0.175
		c-0.397-0.422-0.494-0.593-0.494-0.593l0.054-0.438c0,0,0.104-0.029-0.022-0.304s-0.377-0.049-0.321-0.552
		c0.056-0.504,0.058-0.571,0-0.843c-0.058-0.272-0.012-0.506-0.012-0.506l-0.109-0.679l-0.121-0.409c0,0,0.166,0.106-0.127-0.275
		c-0.294-0.382-0.362-0.453-0.362-0.453l-0.264-0.28C52.041,70.539,51.526,70.484,51.526,70.484"/>
	<path fill-rule="evenodd" clip-rule="evenodd" fill="#0075BF" d="M39.299,15.486l-0.544,0.466l-0.398,0.326l-0.251,0.376
		l-0.104,0.331c-0.104,0.332-0.053,0.237-0.108,0.57c-0.056,0.333-0.056,0.333-0.062,0.619c-0.005,0.286-0.009,0.476-0.009,0.476
		l0.138,0.432l0.185,0.48l0.141,0.336c0,0,0.291,0.102,0.382,0.389c0.093,0.287,0.188,0.384,0.188,0.384l0.093,0.24l-0.298,0.328
		l-0.295,0.09c-0.053,0.237,0.04,0.478,0.04,0.478l-0.005,0.285l-0.3,0.328c0,0,0.152-0.283-0.393,0.136l-0.545,0.418l-0.297,0.233
		c-0.202,0.377-0.206,0.567-0.206,0.567s0.094,0.145-0.154,0.379c-0.248,0.233-0.296,0.185-0.447,0.42
		c-0.151,0.235-0.301,0.423-0.301,0.423l-0.538,0.085l-0.439-0.008l-0.781,0.081c0,0-0.097-0.098-0.536-0.105
		c-0.438-0.008-0.827-0.11-0.827-0.11l-0.39-0.055l-0.777-0.158l-0.381-0.483l-0.333-0.436l-0.483-0.247l-0.183-0.623l-0.326-0.768
		l-0.187-0.433l-0.523-0.677l-1.403-0.598c0,0-0.922-0.207-1.167-0.212c-0.244-0.004-1.269,0.024-1.269,0.024l-0.248,0.186
		l-0.105,0.378l-0.248,0.187l-0.25,0.281l-0.2,0.283c0,0-0.097-0.05-0.103,0.236c-0.005,0.286-0.053,0.237,0.04,0.477
		c0.093,0.239,0.238,0.338,0.238,0.338s-0.05,0.094,0.24,0.195c0.291,0.1,0.048,0,0.387,0.149c0.339,0.149,0.582,0.201,0.582,0.201
		l0.142,0.241l0.239,0.243l0.388,0.15l0.289,0.148l0.24,0.243c0,0,0.193,0.099,0.482,0.294s0.383,0.34,0.626,0.393
		c0.243,0.052,0.823,0.301,0.823,0.301l0.24,0.195l0.675,0.394l0.822,0.349l1.064,0.448l0.962,0.685l0.374,0.817l0.388,0.149
		l0.525,0.629l0.326,0.769l0.486,0.057l0.283,0.481l0.619,0.821l0.627,0.346l0.337,0.196c0,0,0.291,0.102,0.534,0.153
		c0.244,0.052,0.682,0.061,0.682,0.061l0.043,0.287l-0.392,0.088c0.189,0.29,0.092,0.288,0.336,0.292
		c0.243,0.004,0.096,0.049,0.341-0.042c0.246-0.091,0.396-0.279,0.396-0.279l0.294-0.089c0.238,0.291,0.284,0.434,0.284,0.434
		l-0.004,0.238l0.388,0.15l0.439-0.039l0.529,0.391c0.09,0.382,0.234,0.48,0.234,0.48s0.046,0.144,0.388,0.15
		c0.341,0.006,0.248-0.233,0.488,0.009c0.239,0.243,0.58,0.249,0.58,0.249l0.246-0.09l0.495-0.324l0.244-0.043l0.584,0.058
		l0.576,0.487c0.344-0.088,0.59-0.228,0.59-0.228l0.391-0.087l0.688-0.226c0,0,0.493-0.276,0.785-0.271
		c0.294,0.005,0.146,0.002,0.586,0.011c0.438,0.008,0.732-0.034,0.732-0.034s0.096,0.049,0.392-0.041
		c0.294-0.09,0.192,0.146,0.395-0.231c0.203-0.376,0.306-0.756,0.553-0.847c0.246-0.09,0.291,0.006,0.446-0.325
		c0.151-0.331,0.205-0.52,0.205-0.52l0.692-0.559c0,0,0.203-0.33,0.209-0.663s-0.094-0.24,0.062-0.618
		c0.152-0.378,0.355-0.708,0.407-0.946c0.056-0.236,0.16-0.663,0.16-0.663s0.348-0.328,0.453-0.708
		c0.105-0.378,0.308-0.804,0.308-0.804l-0.021-1.382l0.262-0.948l0.163-0.759l0.127-1.57c0,0-0.187-0.479-0.427-0.579
		c-0.242-0.101-0.769-0.635-0.769-0.635l-0.717-0.775l-0.338-0.196c0,0-0.244,0.042-0.675-0.394
		c-0.431-0.437-0.771-0.539-0.771-0.539l-0.874-0.207l-0.137-0.478l-0.778-0.111l-0.479-0.438l-0.576-0.438l-0.438-0.2l-0.477-0.486
		c0,0-0.389-0.054-0.683-0.107c-0.29-0.053-0.774-0.205-0.774-0.205l-0.639,0.274l-0.592,0.322
		c-0.337-0.197-0.383-0.387-0.383-0.387l-0.19-0.291l-0.337-0.196l-0.488-0.009C41,15.898,40.9,15.992,40.9,15.992l-0.289-0.195
		l-0.24-0.196l-0.292-0.053C40.08,15.548,39.251,15.485,39.299,15.486 M39.315,14.724l0.269-1.234c0,0,0.009-0.476,0.014-0.713
		c0.004-0.239,0.063-0.761,0.063-0.761l0.015-0.762c-0.241-0.148-0.28-0.672-0.28-0.672l0.11-0.617L39.37,9.389l-0.131-0.764
		l0.059-0.523l-0.04-0.43l-0.092-0.287l0.012-0.572l0.009-0.477c0,0,0.013-0.619-0.031-0.857C39.11,5.24,38.888,4.14,38.888,4.14
		l-0.326-0.768l-0.438-0.103l-0.489,0.086l-0.293-0.006l-0.297,0.232l-0.104,0.332l-0.396,0.23L36.15,4.423
		c-0.249,0.233-0.299,0.328-0.299,0.328l-0.054,0.285L35.79,5.369l0.332,0.53l-0.005,0.238c0,0-0.196,0.092,0.141,0.288
		c0.338,0.197,0.386,0.246,0.386,0.246l0.24,0.195c0.088,0.431,0.134,0.622,0.134,0.622s-0.004,0.191-0.155,0.426
		c-0.151,0.235-0.24-0.195-0.201,0.283c0.04,0.477,0.273,1.005,0.273,1.005s0.046,0.145-0.008,0.429
		c-0.054,0.285-0.058,0.475-0.058,0.475l0.092,0.288l0.238,0.29l0.043,0.287l-0.006,0.286c-0.105,0.427-0.107,0.521-0.107,0.521
		l0.138,0.384c0,0,0.098,0.001,0.043,0.287c-0.054,0.284-0.151,0.235-0.058,0.475c0.093,0.24,0.233,0.576,0.233,0.576l0.14,0.289
		l0.189,0.336l0.141,0.289l0.19,0.29l0.483,0.199C39.065,15.005,39.268,14.676,39.315,14.724 M44.524,12.725
		c0,0,0.153-0.283,0.254-0.52c0.104-0.236,0.35-0.422,0.35-0.422l0.252-0.424c0,0-0.044-0.191-0.04-0.429
		c0.005-0.238-0.229-0.671-0.229-0.671s-0.146,0.045-0.141-0.289c0.006-0.333-0.042-0.334,0.109-0.57
		c0.15-0.235,0.301-0.519,0.301-0.519s0.052-0.094,0.056-0.38c0.006-0.286,0.065-0.761,0.065-0.761s-0.091-0.382,0.012-0.62
		c0.102-0.235,0.102-0.284,0.157-0.568c0.054-0.285,0.008-0.382,0.06-0.618c0.054-0.238-0.151,0.282,0.06-0.523
		C46,4.606,45.998,4.749,46.004,4.463c0.006-0.286,0.056-0.332,0.06-0.619c0.006-0.285,0.01-0.477,0.016-0.762
		c0.006-0.286-0.227-0.909-0.227-0.909l-0.187-0.433l-0.238-0.29L44.753,1.01L44.217,1l-0.536,0.085l-0.248,0.139
		c0,0-0.394,0.136-0.495,0.372c-0.104,0.237-0.198,0.14-0.203,0.378c-0.005,0.237-0.004,0.19-0.008,0.428
		c-0.005,0.238-0.003,0.144-0.008,0.381c-0.004,0.238-0.045-0.191-0.01,0.524c0.034,0.715,0.177,0.956,0.177,0.956l0.374,0.865
		l0.187,0.432l-0.393,0.136l-0.249,0.187c0,0-0.003,0.143-0.008,0.428c-0.006,0.285-0.007,0.333,0.038,0.573
		c0.044,0.238,0.129,0.907,0.129,0.907s-0.097-0.097,0.042,0.287c0.138,0.384,0.279,0.719,0.279,0.719s0.047,0.05,0.038,0.477
		c-0.008,0.429-0.109,0.712-0.109,0.712l-0.202,0.283l-0.104,0.285l-0.056,0.332c0,0-0.097,0.045,0.043,0.333
		c0.141,0.29,0.234,0.481,0.234,0.481l0.139,0.336c0.19,0.289,0.381,0.484,0.381,0.484l0.242,0.099L44.524,12.725z M48.744,13.995
		c0.292,0.006,0.78,0.015,0.78,0.015l0.594-0.465l0.153-0.378c0,0,0.056-0.285,0.06-0.523c0.006-0.238,0.01-0.476,0.01-0.476
		s0.056-0.285,0.109-0.569c0.054-0.285,0.058-0.476,0.058-0.476l0.357-0.851l0.105-0.38l0.152-0.377l0.2-0.235l0.255-0.519
		c0,0,0.154-0.473,0.163-0.807c0.006-0.333,0.319-1.423,0.319-1.423l0.306-0.614l-0.284-0.529l-0.081-0.811l-0.375-0.721
		l-0.924-0.255l-0.634,0.035c0,0-0.097-0.001-0.442,0.182C49.28,4,49.28,3.953,49.131,4.188c-0.15,0.235-0.15,0.14-0.204,0.424
		c-0.054,0.286-0.148,0.141-0.058,0.523c0.09,0.383,0.092,0.192,0.135,0.479c0.044,0.287,0.046,0.144,0.04,0.524
		c-0.008,0.381-0.008,0.428-0.014,0.714c-0.006,0.286-0.006,0.334-0.062,0.619c-0.054,0.284-0.098-0.002-0.107,0.569
		c-0.012,0.571,0.171,1.242,0.171,1.242L49.026,9.57l-0.058,0.38l-0.058,0.475l-0.008,0.381l0.281,0.576
		c-0.296,0.186-0.54,0.228-0.54,0.228l-0.103,0.236l-0.151,0.284l-0.2,0.282l-0.151,0.235l-0.014,0.715
		c0.089,0.335,0.234,0.48,0.234,0.48L48.744,13.995z M53.713,19.375l0.788-0.51l1.142-0.931l1.146-1.218l0.999-1.172l0.6-0.751
		l0.401-0.613l0.014-0.619l0.446-0.419l0.072-1.189l-0.473-0.771l-0.964-0.685c0,0-0.437-0.104-0.73,0.034
		c-0.296,0.138-0.496,0.371-0.496,0.371l-0.251,0.377l-0.154,0.378c0,0-0.149,0.14-0.253,0.424
		c-0.101,0.284-0.099,0.141-0.154,0.426c-0.054,0.284-0.062,0.665-0.062,0.665s0.008-0.333-0.004,0.239
		c-0.012,0.571-0.063,0.761-0.063,0.761l-0.348,0.279c0,0-0.096-0.049-0.201,0.234c-0.101,0.284,0.238,0.291-0.156,0.617
		c-0.397,0.326-0.447,0.373-0.598,0.608c-0.151,0.235-0.35,0.374-0.35,0.374l-0.401,0.564l-0.202,0.377c0,0-0.044-0.191-0.104,0.284
		c-0.058,0.475-0.06,0.57-0.06,0.57l-0.006,0.381C53.379,18.987,53.713,19.375,53.713,19.375"/>
</g>
</svg>
